<mxfile host="app.diagrams.net" modified="2023-09-16T17:09:16.710Z" agent="Mozilla/5.0 (Windows NT 10.0; Win64; x64) AppleWebKit/537.36 (KHTML, like Gecko) Chrome/116.0.0.0 Safari/537.36" etag="NtoYpCnWBFLrmC6fUQU4" version="21.7.5" type="github">
  <diagram name="Page-1" id="wfMylGYJhQC8H9XKdgfq">
    <mxGraphModel dx="1434" dy="758" grid="1" gridSize="10" guides="1" tooltips="1" connect="1" arrows="1" fold="1" page="1" pageScale="1" pageWidth="850" pageHeight="1100" math="0" shadow="0">
      <root>
        <mxCell id="0" />
        <mxCell id="1" parent="0" />
        <mxCell id="wnrowe8Yc_gLWgEi01_T-1" value="" style="html=1;shadow=0;dashed=0;align=center;verticalAlign=middle;shape=mxgraph.arrows2.arrow;dy=0.6;dx=40;notch=0;fillColor=#FAE5C7;strokeColor=#0F8B8D;rounded=1;sketch=1;curveFitting=1;jiggle=2;labelBackgroundColor=none;fontColor=#143642;" vertex="1" parent="1">
          <mxGeometry x="200" y="113" width="100" height="70" as="geometry" />
        </mxCell>
        <mxCell id="wnrowe8Yc_gLWgEi01_T-2" value="" style="html=1;shadow=0;dashed=0;align=center;verticalAlign=middle;shape=mxgraph.arrows2.arrow;dy=0.6;dx=40;notch=0;fillColor=#FAE5C7;strokeColor=#0F8B8D;rounded=1;sketch=1;curveFitting=1;jiggle=2;labelBackgroundColor=none;fontColor=#143642;" vertex="1" parent="1">
          <mxGeometry x="200" y="230" width="100" height="70" as="geometry" />
        </mxCell>
        <mxCell id="wnrowe8Yc_gLWgEi01_T-3" value="" style="html=1;shadow=0;dashed=0;align=center;verticalAlign=middle;shape=mxgraph.arrows2.arrow;dy=0.6;dx=40;notch=0;fillColor=#FAE5C7;strokeColor=#0F8B8D;rounded=1;sketch=1;curveFitting=1;jiggle=2;labelBackgroundColor=none;fontColor=#143642;" vertex="1" parent="1">
          <mxGeometry x="200" y="340" width="100" height="70" as="geometry" />
        </mxCell>
        <mxCell id="wnrowe8Yc_gLWgEi01_T-4" value="" style="html=1;shadow=0;dashed=0;align=center;verticalAlign=middle;shape=mxgraph.arrows2.arrow;dy=0.6;dx=40;notch=0;fillColor=#FAE5C7;strokeColor=#0F8B8D;rounded=1;sketch=1;curveFitting=1;jiggle=2;labelBackgroundColor=none;fontColor=#143642;" vertex="1" parent="1">
          <mxGeometry x="200" y="460" width="100" height="70" as="geometry" />
        </mxCell>
        <mxCell id="wnrowe8Yc_gLWgEi01_T-5" value="" style="html=1;shadow=0;dashed=0;align=center;verticalAlign=middle;shape=mxgraph.arrows2.arrow;dy=0.6;dx=40;notch=0;fillColor=#FAE5C7;strokeColor=#0F8B8D;rounded=1;sketch=1;curveFitting=1;jiggle=2;labelBackgroundColor=none;fontColor=#143642;" vertex="1" parent="1">
          <mxGeometry x="190" y="560" width="100" height="70" as="geometry" />
        </mxCell>
        <mxCell id="wnrowe8Yc_gLWgEi01_T-6" value="&lt;font style=&quot;font-size: 36px;&quot;&gt;S&lt;/font&gt;" style="text;html=1;align=center;verticalAlign=middle;resizable=0;points=[];autosize=1;strokeColor=#0F8B8D;fillColor=#FAE5C7;fontStyle=1;fontSize=36;rounded=1;sketch=1;curveFitting=1;jiggle=2;labelBackgroundColor=none;fontColor=#143642;" vertex="1" parent="1">
          <mxGeometry x="95" y="118" width="50" height="60" as="geometry" />
        </mxCell>
        <mxCell id="wnrowe8Yc_gLWgEi01_T-7" value="&lt;font style=&quot;font-size: 36px;&quot;&gt;O&lt;/font&gt;" style="text;html=1;align=center;verticalAlign=middle;resizable=0;points=[];autosize=1;strokeColor=#0F8B8D;fillColor=#FAE5C7;fontStyle=1;rounded=1;sketch=1;curveFitting=1;jiggle=2;labelBackgroundColor=none;fontColor=#143642;" vertex="1" parent="1">
          <mxGeometry x="95" y="233" width="50" height="60" as="geometry" />
        </mxCell>
        <mxCell id="wnrowe8Yc_gLWgEi01_T-8" value="&lt;font style=&quot;font-size: 36px;&quot;&gt;L&lt;/font&gt;" style="text;html=1;align=center;verticalAlign=middle;resizable=0;points=[];autosize=1;strokeColor=#0F8B8D;fillColor=#FAE5C7;fontStyle=1;rounded=1;sketch=1;curveFitting=1;jiggle=2;labelBackgroundColor=none;fontColor=#143642;" vertex="1" parent="1">
          <mxGeometry x="95" y="343" width="50" height="60" as="geometry" />
        </mxCell>
        <mxCell id="wnrowe8Yc_gLWgEi01_T-9" value="&lt;font style=&quot;font-size: 36px;&quot;&gt;I&lt;/font&gt;" style="text;html=1;align=center;verticalAlign=middle;resizable=0;points=[];autosize=1;strokeColor=#0F8B8D;fillColor=#FAE5C7;fontStyle=1;rounded=1;sketch=1;curveFitting=1;jiggle=2;labelBackgroundColor=none;fontColor=#143642;" vertex="1" parent="1">
          <mxGeometry x="105" y="453" width="30" height="60" as="geometry" />
        </mxCell>
        <mxCell id="wnrowe8Yc_gLWgEi01_T-10" value="&lt;font style=&quot;font-size: 36px;&quot;&gt;D&lt;/font&gt;" style="text;html=1;align=center;verticalAlign=middle;resizable=0;points=[];autosize=1;strokeColor=#0F8B8D;fillColor=#FAE5C7;fontStyle=1;rounded=1;sketch=1;curveFitting=1;jiggle=2;labelBackgroundColor=none;fontColor=#143642;" vertex="1" parent="1">
          <mxGeometry x="95" y="573" width="50" height="60" as="geometry" />
        </mxCell>
        <mxCell id="wnrowe8Yc_gLWgEi01_T-11" value="&lt;h1&gt;&lt;br&gt;&lt;/h1&gt;" style="text;html=1;align=center;verticalAlign=middle;resizable=0;points=[];autosize=1;strokeColor=none;fillColor=none;rounded=1;sketch=1;curveFitting=1;jiggle=2;labelBackgroundColor=none;fontColor=#143642;" vertex="1" parent="1">
          <mxGeometry x="510" y="113" width="20" height="70" as="geometry" />
        </mxCell>
        <mxCell id="wnrowe8Yc_gLWgEi01_T-16" value="&lt;font style=&quot;font-size: 24px;&quot;&gt;&lt;b&gt;Singe responsibility principle&lt;/b&gt;&lt;/font&gt;" style="rounded=1;whiteSpace=wrap;html=1;sketch=1;curveFitting=1;jiggle=2;labelBackgroundColor=none;fillColor=#FAE5C7;strokeColor=#0F8B8D;fontColor=#143642;" vertex="1" parent="1">
          <mxGeometry x="360" y="118" width="450" height="60" as="geometry" />
        </mxCell>
        <mxCell id="wnrowe8Yc_gLWgEi01_T-17" value="&lt;font style=&quot;font-size: 24px;&quot;&gt;&lt;b&gt;Open Closed principle&lt;/b&gt;&lt;/font&gt;" style="whiteSpace=wrap;html=1;rounded=1;sketch=1;curveFitting=1;jiggle=2;labelBackgroundColor=none;fillColor=#FAE5C7;strokeColor=#0F8B8D;fontColor=#143642;" vertex="1" parent="1">
          <mxGeometry x="360" y="240" width="450" height="60" as="geometry" />
        </mxCell>
        <mxCell id="wnrowe8Yc_gLWgEi01_T-18" value="&lt;font style=&quot;font-size: 24px;&quot;&gt;&lt;b&gt;Liskov substitution principle&lt;/b&gt;&lt;/font&gt;" style="whiteSpace=wrap;html=1;rounded=1;sketch=1;curveFitting=1;jiggle=2;labelBackgroundColor=none;fillColor=#FAE5C7;strokeColor=#0F8B8D;fontColor=#143642;" vertex="1" parent="1">
          <mxGeometry x="360" y="350" width="450" height="60" as="geometry" />
        </mxCell>
        <mxCell id="wnrowe8Yc_gLWgEi01_T-19" value="&lt;font style=&quot;font-size: 24px;&quot;&gt;&lt;b&gt;Interface segregation principle&lt;/b&gt;&lt;/font&gt;" style="whiteSpace=wrap;html=1;rounded=1;sketch=1;curveFitting=1;jiggle=2;labelBackgroundColor=none;fillColor=#FAE5C7;strokeColor=#0F8B8D;fontColor=#143642;" vertex="1" parent="1">
          <mxGeometry x="360" y="470" width="450" height="60" as="geometry" />
        </mxCell>
        <mxCell id="wnrowe8Yc_gLWgEi01_T-20" value="&lt;font style=&quot;font-size: 24px;&quot;&gt;&lt;b&gt;Dependency Inversion principle&amp;nbsp;&lt;/b&gt;&lt;/font&gt;" style="whiteSpace=wrap;html=1;rounded=1;sketch=1;curveFitting=1;jiggle=2;labelBackgroundColor=none;fillColor=#FAE5C7;strokeColor=#0F8B8D;fontColor=#143642;" vertex="1" parent="1">
          <mxGeometry x="360" y="560" width="450" height="60" as="geometry" />
        </mxCell>
      </root>
    </mxGraphModel>
  </diagram>
</mxfile>
